<?xml version="1.0" encoding="UTF-8" standalone="no"?>
<svg
   version="1.1"
   width="1024"
   height="1024"
   id="svg46"
   sodipodi:docname="craiyon_123653_a_minimalistic__simple_vector_logo__software_project__evolutionary_genetic_optimization_in_repeating.svg"
   inkscape:version="1.4 (e7c3feb100, 2024-10-09)"
   xmlns:inkscape="http://www.inkscape.org/namespaces/inkscape"
   xmlns:sodipodi="http://sodipodi.sourceforge.net/DTD/sodipodi-0.dtd"
   xmlns="http://www.w3.org/2000/svg"
   xmlns:svg="http://www.w3.org/2000/svg">
  <defs
     id="defs46" />
  <sodipodi:namedview
     id="namedview46"
     pagecolor="#ffffff"
     bordercolor="#666666"
     borderopacity="1.0"
     inkscape:showpageshadow="2"
     inkscape:pageopacity="0.0"
     inkscape:pagecheckerboard="0"
     inkscape:deskcolor="#d1d1d1"
     showgrid="false"
     inkscape:zoom="0.56761892"
     inkscape:cx="555.83066"
     inkscape:cy="586.66121"
     inkscape:window-width="1916"
     inkscape:window-height="1030"
     inkscape:window-x="0"
     inkscape:window-y="0"
     inkscape:window-maximized="0"
     inkscape:current-layer="svg46" />
  <path
     d="M0 0 C337.92 0 675.84 0 1024 0 C1024 337.92 1024 675.84 1024 1024 C686.08 1024 348.16 1024 0 1024 C0 686.08 0 348.16 0 0 Z "
     fill="#2D3A40"
     transform="translate(0,0)"
     id="path1" />
  <path
     d="m 685.47445,272.01703 c 13.2,0 26.4,0 40,0 -3.53947,22.41665 -3.53947,22.41665 -6.0625,31.1875 -0.29817,1.04334 -0.59635,2.08667 -0.90356,3.16162 -11.48348,38.71274 -33.18495,74.67768 -60.03394,104.65088 -0.82629,0.92555 -1.65258,1.8511 -2.5039,2.80469 -1.41684,1.57746 -2.83778,3.15125 -4.26563,4.71875 -1.23022,1.36596 -2.45371,2.73846 -3.64624,4.13745 -4.90247,5.72726 -10.16126,11.06888 -15.49951,16.38477 -1.51963,1.51427 -3.03384,3.03382 -4.54761,4.55395 -5.3408,5.34445 -10.7883,10.49332 -16.53711,15.40039 -1.60768,1.45446 -3.21239,2.91221 -4.8125,4.375 -5.24877,4.73106 -10.69175,9.1856 -16.1875,13.625 -1.26621,1.03444 -2.5318,2.06964 -3.79687,3.10547 -8.29174,6.78132 -16.66145,13.42943 -25.20313,19.89453 -0.60779,0.46229 -1.21558,0.92458 -1.84179,1.40088 -8.10949,6.16445 -16.31109,12.1716 -24.65015,18.02173 -15.81755,11.0974 -31.51067,22.38612 -46.50806,34.57739 -0.86109,0.69738 -1.72218,1.39477 -2.60937,2.11328 -9.81672,7.98673 -19.52716,16.09204 -28.87891,24.6211 -2.08325,1.87913 -4.18712,3.72637 -6.30469,5.5664 -4.15198,3.6259 -8.193,7.35924 -12.20703,11.13672 -1.04982,0.98722 -1.04982,0.98722 -2.12085,1.99439 -7.32818,6.90952 -14.32624,13.91674 -20.87915,21.56811 -0.8938,1.01887 -1.7884,2.03704 -2.68359,3.05469 -30.32911,34.66399 -53.24511,73.98187 -60.31641,119.94531 -12.54,0 -25.08,0 -38,0 0,-10.14375 0,-10.14375 1.06641,-14.82812 0.35155,-1.55437 0.35155,-1.55437 0.7102,-3.14014 0.25935,-1.08297 0.51869,-2.16595 0.78589,-3.28174 0.40545,-1.71147 0.40545,-1.71147 0.81909,-3.45752 4.36323,-17.92508 10.57806,-34.70294 18.61841,-51.29248 0.33693,-0.70512 0.67386,-1.41023 1.021,-2.13672 14.28379,-29.56722 35.88996,-57.2194 59.31885,-80.16797 1.71155,-1.7478 3.2744,-3.57257 4.84765,-5.44531 3.50532,-4.07503 7.41582,-7.65132 11.40015,-11.24414 2.7947,-2.52011 5.52871,-5.06785 8.16235,-7.75586 3.57666,-3.62787 7.3839,-6.9353 11.25,-10.25 1.04332,-0.90715 2.08626,-1.81474 3.12891,-2.72265 6.36996,-5.52711 12.82704,-10.89764 19.48999,-16.06812 3.7455,-2.9096 7.43225,-5.87923 11.09253,-8.89526 8.76651,-7.21553 17.83349,-13.95647 27.00732,-20.64258 3.44957,-2.52737 6.86626,-5.09759 10.28125,-7.67139 4.91528,-3.70075 9.85248,-7.36906 14.81348,-11.0083 15.78073,-11.57751 31.39923,-23.36768 46.59766,-35.70264 1.47174,-1.19404 2.94808,-2.38242 4.4248,-3.57031 10.14971,-8.21501 20.31343,-16.56899 29.40625,-25.95703 1.86776,-1.87191 3.81686,-3.59881 5.82031,-5.32422 5.82868,-5.03179 11.0624,-10.4678 16.07813,-16.30469 1.25774,-1.4427 2.54,-2.86435 3.84375,-4.26562 24.18469,-26.03827 43.22784,-57.91286 54.89062,-91.42969 0.27433,-0.76506 0.54866,-1.53012 0.8313,-2.31836 2.9813,-9.00225 3.76425,-17.43261 5.2937,-27.11914 z"
     fill="#b6bdbf"
     id="path2" />
  <path
     d="M0 0 C6.77828127 4.22711497 12.76318567 9.07207901 18.80078125 14.26953125 C21.52033335 16.60761869 24.30191863 18.8498146 27.125 21.0625 C31.7442955 24.72194189 36.08279701 28.64324186 40.41796875 32.6328125 C42.56542968 34.60158909 44.73482606 36.53125216 46.9375 38.4375 C55.50651294 45.91811009 63.75574491 53.65962217 71.8125 61.6875 C72.51753662 62.38794434 73.22257324 63.08838867 73.94897461 63.81005859 C78.50320835 68.37771715 82.79936502 73.10715393 87 78 C87.96121482 79.09465069 88.92340362 80.18844716 89.88671875 81.28125 C115.47835946 110.57587574 136.04189055 143.85494471 148 181 C148.36738281 182.12019531 148.73476563 183.24039063 149.11328125 184.39453125 C152.77991166 196.32877616 156 209.49014291 156 222 C143.13 222 130.26 222 117 222 C116.34 217.05 115.68 212.1 115 207 C114.14201079 203.36927149 113.26134687 199.86987689 112.1875 196.3125 C111.9203418 195.40951172 111.65318359 194.50652344 111.37792969 193.57617188 C109.34058679 186.83035714 106.98363515 180.38912104 104 174 C103.29543616 172.42584245 102.59102337 170.85161729 101.88671875 169.27734375 C91.74169547 146.96493685 78.0395008 127.72760149 62.52490234 108.86572266 C61.18619742 107.22781311 59.8668729 105.57410321 58.55078125 103.91796875 C53.86424328 98.03665808 48.87835391 92.72654707 43.48046875 87.5078125 C41 85 41 85 38.91015625 82.38671875 C37.1481353 80.18509339 35.4093075 78.48543579 33.25 76.6875 C30.42234077 74.27643882 27.77209193 71.79450665 25.1875 69.125 C21.28044013 65.15665292 17.05481083 61.69753338 12.71484375 58.21484375 C10.28007181 56.22849024 7.94611216 54.17918393 5.625 52.0625 C-5.80707311 41.81791335 -18.63053703 33.06059726 -31 24 C-26.43598029 20.32317451 -21.81339512 16.72334286 -17.1875 13.125 C-16.41857422 12.52558594 -15.64964844 11.92617188 -14.85742188 11.30859375 C-9.94402936 7.48568413 -4.99415947 3.7167825 0 0 Z "
     fill="#B6BDBE"
     transform="translate(561,527)"
     id="path3" />
  <path
     d="M0 0 C12.54 0 25.08 0 38 0 C39.155 4.3725 40.31 8.745 41.5 13.25 C44.84600163 25.55289521 48.72791067 37.37886871 54 49 C54.4630957 50.02359619 54.4630957 50.02359619 54.93554688 51.06787109 C62.83972731 68.23397966 72.87773499 84.29843802 84.54296875 99.14160156 C85.98146296 100.97635658 87.39896537 102.82566063 88.8125 104.6796875 C94.00769302 111.45115662 99.45286035 117.86546791 105.296875 124.0859375 C107.3390945 126.28752094 109.31184676 128.5107089 111.26953125 130.78515625 C115.2973737 135.40902751 119.59187327 139.73887644 123.9375 144.0625 C125.07735352 145.2081543 125.07735352 145.2081543 126.24023438 146.37695312 C130.44495346 150.5744908 134.73537479 154.60692996 139.23803711 158.4831543 C141.46938693 160.40408771 143.63951567 162.38848893 145.8125 164.375 C150.53779333 168.63421736 155.40748254 172.67971475 160.35888672 176.67236328 C162.23546392 178.19048688 164.10427143 179.71789975 165.97265625 181.24609375 C167.37755887 182.39328464 168.78250664 183.54042025 170.1875 184.6875 C171.16710693 185.48945801 171.16710693 185.48945801 172.16650391 186.30761719 C176.69091803 189.9923201 181.30789183 193.53158246 186 197 C184.66936253 200.9919124 182.08944691 202.29801083 178.75 204.5625 C173.0814306 208.49310967 167.57555908 212.56946391 162.17675781 216.86352539 C159.77055037 218.75252859 157.93270405 220.02243198 155 221 C152.85707238 219.6180552 150.96602941 218.22903217 149 216.625 C148.42330566 216.16673828 147.84661133 215.70847656 147.25244141 215.23632812 C145.49360161 213.83389881 143.74663921 212.4175768 142 211 C141.03835938 210.23429688 140.07671875 209.46859375 139.0859375 208.6796875 C133.38222783 204.09370768 127.92936034 199.28147806 122.54296875 194.328125 C120.42932946 192.39305738 118.29340152 190.49791703 116.125 188.625 C102.92776901 177.11423058 89.76700475 165.07662746 78.4609375 151.67578125 C76.92722273 149.91652019 75.30327942 148.30882424 73.625 146.6875 C69.49839643 142.61579582 65.91304624 138.14631742 62.29931641 133.62011719 C60.90093128 131.87647125 59.48835118 130.14495691 58.07421875 128.4140625 C41.68116187 108.27207369 28.64257711 86.67408987 18 63 C17.52175781 61.96230469 17.04351562 60.92460937 16.55078125 59.85546875 C8.65975507 41.94991765 0 19.77404583 0 0 Z "
     fill="#B6BDBF"
     transform="translate(306,277)"
     id="path4" />
  <path
     d="M0 0 C2.09436892 0.77289226 3.84911436 1.67458383 5.75146484 2.84082031 C6.45795166 3.27201172 7.16443848 3.70320312 7.89233398 4.14746094 C9.02529907 4.85225586 9.02529907 4.85225586 10.18115234 5.57128906 C10.97448975 6.06048828 11.76782715 6.5496875 12.58520508 7.05371094 C18.83437134 10.93501219 24.98213625 14.95928173 31.07421875 19.08227539 C36.75911578 22.92656487 42.51588101 26.65414752 48.28105164 30.37632751 C56.19032404 35.48530602 64.06391755 40.64788354 71.93115234 45.82128906 C72.67918121 46.31302612 73.42721008 46.80476318 74.19790649 47.31140137 C113.14266933 72.91838025 113.14266933 72.91838025 130.91503906 85.27294922 C133.42841721 87.01712475 135.94750877 88.75292152 138.46630859 90.48925781 C150.14217953 98.55467882 161.68117631 106.7727421 173.05078125 115.26464844 C174.84211312 116.59931499 176.64031756 117.92371879 178.44287109 119.24316406 C187.38173056 125.83338202 196.31092025 132.77151847 204.05615234 140.75878906 C198.70053624 143.43659711 190.41264887 142.37121796 184.4675293 142.4934082 C182.51102588 142.54464575 180.55497063 142.61920927 178.6003418 142.71899414 C163.7732094 143.46129919 155.49995379 141.00177086 144.16766357 131.47460938 C140.56445439 128.54663087 136.70307183 126.0097544 132.84912109 123.42675781 C131.24740604 122.33573838 129.64634145 121.24376346 128.04589844 120.15087891 C126.38290531 119.01980644 124.71965064 117.88911844 123.05615234 116.75878906 C122.19475647 116.1734137 121.3333606 115.58803833 120.44586182 114.98492432 C115.01235758 111.29484101 109.57323697 107.61315372 104.13012695 103.93725586 C102.28296439 102.68910243 100.43661485 101.43974498 98.59106445 100.18920898 C88.39367292 93.27984961 78.15712204 86.48304498 67.67749023 80.0090332 C62.08885866 76.55261903 56.60780491 72.93307743 51.11865234 69.32128906 C48.86134111 67.84005554 46.60323417 66.3600366 44.34521484 64.87988281 C43.26788086 64.17331543 42.19054687 63.46674805 41.08056641 62.73876953 C35.08263258 58.81212735 29.05965944 54.92432401 23.03613281 51.03710938 C19.54094925 48.78053957 16.048781 46.51931031 12.55615234 44.25878906 C11.14730257 43.34732394 9.7384484 42.43586561 8.32958984 41.52441406 C5.41739533 39.64013174 2.50604439 37.75455425 -0.40478516 35.86816406 C-8.23018858 30.79819649 -16.06466822 25.74496525 -23.94384766 20.75878906 C-22.64238653 17.82893161 -21.35179992 15.97260173 -18.89697266 13.91894531 C-18.29884766 13.41298828 -17.70072266 12.90703125 -17.08447266 12.38574219 C-16.46056641 11.86947266 -15.83666016 11.35320313 -15.19384766 10.82128906 C-14.58541016 10.30888672 -13.97697266 9.79648437 -13.35009766 9.26855469 C-12.14005183 8.25113368 -10.92459998 7.24010469 -9.70361328 6.23583984 C-8.54315522 5.26181497 -7.40524701 4.2601851 -6.29345703 3.23095703 C-2.41521893 -0.29970313 -2.41521893 -0.29970313 0 0 Z "
     fill="#B5BCBE"
     transform="translate(458.94384765625,604.2412109375)"
     id="path5" />
  <path
     d="M0 0 C6.08292885 -0.22389036 12.16341895 -0.38644129 18.24951172 -0.49438477 C20.31569227 -0.53941401 22.38158976 -0.60066113 24.44677734 -0.67895508 C43.82521892 -1.39476907 43.82521892 -1.39476907 50.09375 4.24609375 C51.43867144 5.79453708 52.74811784 7.37541344 54 9 C54.95132813 9.85851562 55.90265625 10.71703125 56.8828125 11.6015625 C57.62273437 12.26929688 58.36265625 12.93703125 59.125 13.625 C64.44682518 18.41134742 69.81512535 23.1366476 75.2578125 27.78515625 C76.46356676 28.81507479 77.66929523 29.84502353 78.875 30.875 C79.7877771 31.65447998 79.7877771 31.65447998 80.71899414 32.44970703 C84.25623858 35.47892533 87.74392577 38.55148583 91.1875 41.6875 C95.42708043 45.53851005 99.82932112 49.14843955 104.28125 52.75 C107.78050524 55.64593537 111.12062616 58.69829956 114.4765625 61.7578125 C117.05082358 64.04515904 119.69289489 66.21548271 122.375 68.375 C127.52110074 72.53846481 132.38077875 76.95062837 137.234375 81.4453125 C146.6958505 90.18515004 156.60919906 98.46675246 166.625 106.5625 C171.31350804 110.37446089 175.76258764 114.40047751 180.20703125 118.4921875 C184.66747845 122.4972324 189.32100284 126.25318216 194 130 C191.20343896 133.72874806 188.26866715 136.60139644 184.625 139.5 C183.66207031 140.27214844 182.69914063 141.04429687 181.70703125 141.83984375 C180.81371094 142.55269531 179.92039062 143.26554688 179 144 C176.99134113 145.65666531 174.99579499 147.32784744 173 149 C168.50047442 147.5141492 165.13871782 145.0049514 161.5 142.0625 C160.88833984 141.57450928 160.27667969 141.08651855 159.64648438 140.58374023 C153.89599026 135.9710563 148.25924424 131.22707699 142.66503906 126.42675781 C140.93437675 124.94376799 139.19813006 123.46752034 137.4609375 121.9921875 C132.00054442 117.34561372 126.59270792 112.66458295 121.3125 107.8125 C116.92993247 103.7892645 112.38923356 100.02540113 107.76171875 96.2890625 C103.90514928 93.09252826 100.22780376 89.71553246 96.5390625 86.328125 C92.02743881 82.19131313 87.40014509 78.19389177 82.74609375 74.21875 C81.53902687 73.1875417 80.33199663 72.15629052 79.125 71.125 C78.51640137 70.60526611 77.90780273 70.08553223 77.28076172 69.55004883 C73.74357043 66.52094405 70.25598946 63.44843697 66.8125 60.3125 C63.4991692 57.30185521 60.11058071 54.43434822 56.625 51.625 C51.48241457 47.46437925 46.62548263 43.05643696 41.77734375 38.5625 C38.89306447 35.90133655 35.95662867 33.31300992 32.9921875 30.7421875 C29.76977453 27.92415576 26.60305021 25.04448387 23.42578125 22.17578125 C21.36297212 20.32556437 19.2828763 18.50055191 17.1875 16.6875 C13.4064323 13.38978529 9.69775531 10.01548197 6 6.625 C5.41114014 6.08834717 4.82228027 5.55169434 4.21557617 4.9987793 C2.79080863 3.68679796 1.39268989 2.34598383 0 1 C0 0.67 0 0.34 0 0 Z "
     fill="#B5BCBF"
     transform="translate(386,276)"
     id="path6" />
  <path
     d="M0 0 C4.28824368 0.47647152 6.08962162 3.00854069 9 6 C15.35181316 12.05229676 21.94004431 17.60709013 28.87670898 22.96337891 C33.23689719 26.34767283 37.31860421 29.95112802 41.37890625 33.69140625 C44.46674676 36.41109886 47.68168843 38.92373504 50.9375 41.4375 C56.31293061 45.59226142 61.36885686 49.97294559 66.3515625 54.59765625 C69.89083941 57.80806229 73.59903741 60.78489686 77.31640625 63.78515625 C79.94708557 65.95632827 82.47942424 68.20241357 85 70.5 C89.19729034 74.32170863 93.53710231 77.91474189 97.94921875 81.484375 C101.52056998 84.42925361 105.01203094 87.45729425 108.5 90.5 C114.57040498 95.79015315 120.73788737 100.93741724 127 106 C128.72997757 107.4156763 130.45912237 108.8323708 132.1875 110.25 C133.58174732 111.38947119 134.97601292 112.5289201 136.37060547 113.66796875 C137.5578007 114.63850174 138.7442193 115.60998495 139.93017578 116.58203125 C142.03507381 118.30678876 144.14238374 120.02856564 146.25 121.75 C147.24229614 122.56452637 147.24229614 122.56452637 148.25463867 123.39550781 C152.39417462 126.77103719 156.6228528 129.93826491 161 133 C159.46706323 137.21072505 156.36087489 139.31856075 152.875 141.875 C151.69516056 142.75239989 150.51547273 143.63000369 149.3359375 144.5078125 C148.76327148 144.93094727 148.19060547 145.35408203 147.60058594 145.79003906 C146.21496828 146.837495 144.87240621 147.94145132 143.5390625 149.0546875 C142.86617187 149.61414063 142.19328125 150.17359375 141.5 150.75 C140.9328125 151.23984375 140.365625 151.7296875 139.78125 152.234375 C138 153 138 153 135.65234375 152.44921875 C132.4299957 150.68855435 129.79168283 148.48662196 127.0625 146.0625 C122.47908633 142.07832425 117.81637909 138.26104331 113 134.5625 C106.98680213 129.91346532 101.40681528 124.90247482 95.875 119.6953125 C93.66008558 117.61883023 91.42834712 115.60071585 89.125 113.625 C78.68637803 104.54793742 68.79241437 94.88917442 59 85.125 C58.11610596 84.24569824 57.23221191 83.36639648 56.3215332 82.46044922 C51.34149085 77.46858677 46.54755714 72.38897382 42 67 C41.4838916 66.3905957 40.9677832 65.78119141 40.43603516 65.15332031 C27.51399702 49.75493341 16.30152285 33.83636981 7 16 C6.63438965 15.30052246 6.2687793 14.60104492 5.89208984 13.88037109 C0 2.53533665 0 2.53533665 0 0 Z "
     fill="#B5BCBF"
     transform="translate(374,309)"
     id="path7" />
  <path
     d="M0 0 C3.42977208 1.88164564 6.51831991 4.1198616 9.62890625 6.4765625 C10.97460215 7.48135096 12.32097089 8.48523885 13.66796875 9.48828125 C14.34375977 9.99278809 15.01955078 10.49729492 15.71582031 11.01708984 C18.06251789 12.75072283 20.44127845 14.43410818 22.82861328 16.11108398 C39.46128373 27.80630913 55.27509696 40.61583307 70.30078125 54.30859375 C71.90086035 55.75964587 73.51572059 57.19455604 75.14453125 58.61328125 C81.82663882 64.46537861 87.87271822 70.77866643 93.69140625 77.4765625 C94.18479492 78.04165527 94.67818359 78.60674805 95.18652344 79.18896484 C104.87931784 90.4022583 113.01167789 102.57738241 121.07080078 114.99707031 C122.40584495 117.03965974 123.7706426 119.05425008 125.15625 121.0625 C126.69140625 123.4765625 126.69140625 123.4765625 126.69140625 125.4765625 C123.88558869 124.15012661 121.42473185 122.66143856 118.92578125 120.82421875 C118.20890137 120.30069824 117.49202148 119.77717773 116.75341797 119.23779297 C115.60897217 118.39692139 115.60897217 118.39692139 114.44140625 117.5390625 C106.59060257 111.81944043 98.64613127 106.26223185 90.61962891 100.79296875 C88.12661675 99.09097818 85.64181904 97.37722435 83.15698242 95.66333008 C61.68983647 80.86628387 40.04750386 66.33848272 18.3371582 51.90185547 C14.98197402 49.6705077 11.62936599 47.43531426 8.27734375 45.19921875 C4.84538549 42.9101867 1.4100578 40.62651237 -2.03125 38.3515625 C-8.707056 33.9352255 -15.37785676 29.5073079 -21.93359375 24.9140625 C-22.79210937 24.31464844 -23.650625 23.71523438 -24.53515625 23.09765625 C-25.12039063 22.56269531 -25.705625 22.02773438 -26.30859375 21.4765625 C-26.30859375 20.4865625 -26.30859375 19.4965625 -26.30859375 18.4765625 C-24.04104146 16.43307665 -21.79062617 14.57375708 -19.37109375 12.7265625 C-17.98951675 11.65633595 -16.60800611 10.58602372 -15.2265625 9.515625 C-14.55286621 8.99774414 -13.87916992 8.47986328 -13.18505859 7.94628906 C-11.58493096 6.69300148 -10.02938802 5.38313354 -8.484375 4.0625 C-7.72511719 3.41539062 -6.96585937 2.76828125 -6.18359375 2.1015625 C-5.54164063 1.53695312 -4.8996875 0.97234375 -4.23828125 0.390625 C-2.30859375 -0.5234375 -2.30859375 -0.5234375 0 0 Z "
     fill="#B5BCBF"
     transform="translate(510.30859375,564.5234375)"
     id="path8" />
  <path
     d="M0 0 C0 33.66 0 67.32 0 102 C-3.38516206 100.30741897 -4.66287836 99.53351012 -7.0625 96.9375 C-9.94270032 93.96537839 -12.95972061 91.34059527 -16.1875 88.75 C-20.26920786 85.46676577 -24.16987913 82.06734235 -28 78.5 C-32.56409746 74.25835002 -37.26070981 70.25158628 -42.1171875 66.34375 C-46.05508242 63.14220942 -49.91133096 59.84730366 -53.76147461 56.54101562 C-56.69806164 54.00546471 -56.69806164 54.00546471 -60 52 C-60 51.34 -60 50.68 -60 50 C-58.01391064 48.31993365 -56.01548129 46.74715337 -53.9375 45.1875 C-47.89889079 40.55745983 -42.11240857 35.70928801 -36.39379883 30.69140625 C-32.8669516 27.60238401 -29.2973327 24.60425441 -25.625 21.6875 C-19.67190692 16.88719953 -14.18077736 11.60660483 -8.66064453 6.3190918 C-7.95665527 5.646604 -7.25266602 4.97411621 -6.52734375 4.28125 C-5.89562256 3.67345703 -5.26390137 3.06566406 -4.61303711 2.43945312 C-1.87940977 0 -1.87940977 0 0 0 Z "
     fill="#B6BDBF"
     transform="translate(640,462)"
     id="path9" />
  <path
     d="M0 0 C3.39145307 1.69572653 4.7940711 2.58254628 7.25 5.1875 C10.31591561 8.34454686 13.51094566 11.25366088 16.84375 14.125 C19.19962958 16.17359094 21.5050746 18.27203002 23.8125 20.375 C28.09366308 24.23912436 32.50510527 27.90115148 36.98828125 31.52734375 C41.12766423 34.9258255 45.18117627 38.42085151 49.22949219 41.92700195 C52.08402636 44.39179815 54.93976861 46.78941517 58 49 C56.45729956 53.33569405 53.11500875 55.48298051 49.5625 58.125 C43.92981588 62.42526798 38.64850538 66.91069209 33.44921875 71.73046875 C31.30885456 73.71380462 29.14063092 75.64960189 26.9375 77.5625 C23.12030828 80.88213516 19.35832503 84.26022714 15.60546875 87.65234375 C13.80232955 89.27706138 11.99192716 90.89374093 10.17578125 92.50390625 C9.27214844 93.30699219 8.36851562 94.11007812 7.4375 94.9375 C6.61121094 95.66839844 5.78492188 96.39929688 4.93359375 97.15234375 C2.92989811 98.85878582 2.92989811 98.85878582 2 101 C1.34 101 0.68 101 0 101 C0 67.67 0 34.34 0 0 Z "
     fill="#B5BCBE"
     transform="translate(384,463)"
     id="path10" />
  <path
     d="M0 0 C4.22724196 1.69089678 7.20327401 3.32738842 10.91015625 5.859375 C11.47065674 6.24053467 12.03115723 6.62169434 12.60864258 7.0144043 C14.42986244 8.25489083 16.24621741 9.50229827 18.0625 10.75 C19.32392695 11.61131085 20.58556609 12.47231102 21.84741211 13.33300781 C30.1092395 18.97709089 38.32065202 24.69163484 46.49145508 30.46679688 C51.65017086 34.1011855 56.87206169 37.53736186 62.296875 40.765625 C62.85890625 41.17296875 63.4209375 41.5803125 64 42 C64 42.66 64 43.32 64 44 C42.65461393 44.68503458 21.35861477 45.11360965 0 45 C0 30.15 0 15.3 0 0 Z "
     fill="#B5BCC0"
     transform="translate(512,701)"
     id="path12" />
  <path
     d="M0 0 C15.84 0 31.68 0 48 0 C48 13.53 48 27.06 48 41 C43.33599113 39.13439645 40.36641862 37.04516086 36.6875 33.8125 C36.10991943 33.31419678 35.53233887 32.81589355 34.93725586 32.30249023 C33.28561245 30.87492402 31.64155607 29.43914341 30 28 C29.29617188 27.38640625 28.59234375 26.7728125 27.8671875 26.140625 C26.65032208 25.07652624 25.43551925 24.01006474 24.22265625 22.94140625 C21.16705206 20.27245144 18.08249342 17.63780585 15 15 C13.78902246 13.96098417 12.57808408 12.92192269 11.3671875 11.8828125 C9.3587703 10.16018688 7.34385305 8.44715316 5.3203125 6.7421875 C4.59585937 6.12601562 3.87140625 5.50984375 3.125 4.875 C2.20074219 4.09769531 2.20074219 4.09769531 1.2578125 3.3046875 C0 2 0 2 0 0 Z "
     fill="#B0B7BA"
     transform="translate(464,275)"
     id="path14" />
  <path
     d="m 308.39557,229.92027 c -1.38363,15.77946 -0.56508,32.88022 -1.99064,49.13784 13.47828,1.18185 24.75439,1.04239 38.6411,2.26006 -1.45106,-4.80915 -3.27292,-7.94986 -6.17187,-11.89709 l -1.35136,-1.87545 c -1.27784,-1.77004 -2.56452,-3.53322 -3.85477,-5.29422 -0.54976,-0.75473 -1.09954,-1.50947 -1.66597,-2.28707 -0.95373,-1.30517 -1.91001,-2.60848 -2.86863,-3.91005 -2.39185,-3.27707 -4.74698,-6.57997 -7.10545,-9.8811 -0.92927,-1.29711 -1.85859,-2.59418 -2.78795,-3.89121 -1.5406,-2.15121 -3.07109,-4.30806 -4.59278,-6.4728 l -1.66829,-2.35002 c -0.69359,-0.98862 -0.69359,-0.98862 -1.40121,-1.99722 -1.18983,-1.36696 -1.18983,-1.36696 -3.18218,-1.54167 z"
     fill="#b0b7ba"
     id="path14-5"
     sodipodi:nodetypes="cccccccccccccc" />
  <path
     d="m 723.19494,222.76175 c 1.38363,15.77946 0.56508,32.88022 1.99064,49.13784 -13.47828,1.18185 -24.75439,1.04239 -38.6411,2.26006 1.45106,-4.80915 3.27292,-7.94986 6.17187,-11.89709 l 1.35136,-1.87545 c 1.27784,-1.77004 2.56452,-3.53322 3.85477,-5.29422 0.54976,-0.75473 1.09954,-1.50947 1.66597,-2.28707 0.95373,-1.30517 1.91001,-2.60848 2.86863,-3.91005 2.39185,-3.27707 4.74698,-6.57997 7.10545,-9.8811 0.92927,-1.29711 1.85859,-2.59418 2.78795,-3.89121 1.5406,-2.15121 3.07109,-4.30806 4.59278,-6.4728 l 1.66829,-2.35002 c 0.69359,-0.98862 0.69359,-0.98862 1.40121,-1.99722 1.18983,-1.36696 1.18983,-1.36696 3.18218,-1.54167 z"
     fill="#b0b7ba"
     id="path14-5-6"
     sodipodi:nodetypes="cccccccccccccc" />
  <path
     d="M0 0 C4.5 2.25 4.5 2.25 6 6 C5.67 6.33 5.34 6.66 5 7 C4.92077209 9.77910193 4.9063225 12.5329884 4.93408203 15.31176758 C4.93875488 16.18330978 4.94342773 17.05485199 4.94824219 17.95280457 C4.95877276 19.8522495 4.97144443 21.75168345 4.98596573 23.65110207 C5.00789419 26.65572421 5.02203421 29.66028415 5.03366089 32.66496277 C5.06734514 41.21040408 5.10888894 49.75574247 5.17138672 58.30102539 C5.2090098 63.52169725 5.23205143 68.74226175 5.24569321 73.96304893 C5.25375801 75.95540034 5.26738166 77.94773718 5.28662491 79.94001198 C5.31306572 82.72682584 5.32099384 85.51312523 5.32470703 88.30004883 C5.3370639 89.12566315 5.34942078 89.95127747 5.3621521 90.8019104 C5.35034025 94.1588501 5.23631027 96.5691851 3.60470581 99.54374695 C2 101 2 101 0 101 C0 67.67 0 34.34 0 0 Z "
     fill="#BCC5C8"
     transform="translate(384,463)"
     id="path17" />
  <path
     d="M0 0 C1 1.33333333 2 2.66666667 3 4 C3.556875 4.70125 4.11375 5.4025 4.6875 6.125 C6 8 6 8 6 10 C2.63408134 8.55746343 0.48952921 6.66735273 -2 4 C-1.34 2.68 -0.68 1.36 0 0 Z "
     fill="#9EA8AE"
     transform="translate(631,680)"
     id="path34" />
  <path
     d="M0 0 C1.875 0.25 1.875 0.25 4 1 C5.25 3.0625 5.25 3.0625 6 5 C5.01 5.99 4.02 6.98 3 8 C0 2.25 0 2.25 0 0 Z "
     fill="#8C989E"
     transform="translate(374,309)"
     id="path39" />
  <path
     style="opacity:0.99;fill:#b6bdbf;fill-opacity:1;stroke:none;stroke-width:12.7978;stroke-linecap:round;stroke-opacity:1"
     id="path46-3"
     sodipodi:type="arc"
     sodipodi:cx="738.01263"
     sodipodi:cy="163.64719"
     sodipodi:rx="39.863747"
     sodipodi:ry="36.74939"
     sodipodi:start="4.9528081"
     sodipodi:end="4.9460537"
     sodipodi:open="true"
     sodipodi:arc-type="arc"
     d="m 747.50458,127.95477 a 39.863747,36.74939 0 0 1 29.24122,44.38252 39.863747,36.74939 0 0 1 -48.0943,27.03166 39.863747,36.74939 0 0 1 -29.40365,-44.29123 39.863747,36.74939 0 0 1 47.995,-27.18124" />
  <path
     style="opacity:0.99;fill:#b6bdbf;fill-opacity:1;stroke:none;stroke-width:12.7978;stroke-linecap:round;stroke-opacity:1"
     id="path46-3-6"
     sodipodi:type="arc"
     sodipodi:cx="290.44824"
     sodipodi:cy="165.40894"
     sodipodi:rx="39.863747"
     sodipodi:ry="36.74939"
     sodipodi:start="4.9528081"
     sodipodi:end="4.9460537"
     sodipodi:open="true"
     sodipodi:arc-type="arc"
     d="m 299.94019,129.71652 a 39.863747,36.74939 0 0 1 29.24122,44.38252 39.863747,36.74939 0 0 1 -48.0943,27.03166 39.863747,36.74939 0 0 1 -29.40365,-44.29123 39.863747,36.74939 0 0 1 47.995,-27.18124" />
  <path
     style="opacity:0.99;fill:#666666;fill-opacity:1;stroke:none;stroke-width:16.4886;stroke-linecap:round;stroke-opacity:1"
     id="path46-3-5"
     sodipodi:type="arc"
     sodipodi:cx="702.83173"
     sodipodi:cy="833.92603"
     sodipodi:rx="48.672474"
     sodipodi:ry="49.962479"
     sodipodi:start="4.9528081"
     sodipodi:end="4.9460537"
     sodipodi:open="true"
     sodipodi:arc-type="arc"
     d="m 714.42111,785.40055 a 48.672474,49.962479 0 0 1 35.70269,60.34007 48.672474,49.962479 0 0 1 -58.72175,36.75078 48.672474,49.962479 0 0 1 -35.901,-60.21595 48.672474,49.962479 0 0 1 58.60051,-36.95414" />
  <path
     style="opacity:0.99;fill:#666666;fill-opacity:1;stroke:none;stroke-width:16.4886;stroke-linecap:round;stroke-opacity:1"
     id="path46-3-5-2"
     sodipodi:type="arc"
     sodipodi:cx="336.37711"
     sodipodi:cy="830.15375"
     sodipodi:rx="48.672474"
     sodipodi:ry="49.962479"
     sodipodi:start="4.9528081"
     sodipodi:end="4.9460537"
     sodipodi:open="true"
     sodipodi:arc-type="arc"
     d="m 347.96649,781.62828 a 48.672474,49.962479 0 0 1 35.70269,60.34006 48.672474,49.962479 0 0 1 -58.72175,36.75078 48.672474,49.962479 0 0 1 -35.901,-60.21595 48.672474,49.962479 0 0 1 58.6005,-36.95414" />
</svg>
